<svg id="Group_3550" data-name="Group 3550" xmlns="http://www.w3.org/2000/svg" xmlns:xlink="http://www.w3.org/1999/xlink" width="63.679" height="62.636" viewBox="0 0 63.679 62.636">
  <defs>
    <clipPath id="clip-path">
      <rect id="Rectangle_868" data-name="Rectangle 868" width="63.679" height="62.636" fill="none"/>
    </clipPath>
  </defs>
  <rect id="Rectangle_867" data-name="Rectangle 867" width="52.744" height="17.847" transform="translate(5.383 16.727)" fill="#C21121"/>
  <g id="Group_3549" data-name="Group 3549" transform="translate(0)">
    <g id="Group_3548" data-name="Group 3548" clip-path="url(#clip-path)">
      <path id="Path_30134" data-name="Path 30134" d="M63.679,48.871a1.9,1.9,0,0,1-1.638.9c-3.159.259-6.314.571-9.469.867-.247.023-.492.067-.8.108-.131,1.334-.266,2.667-.393,4-.21,2.207-.422,4.413-.617,6.622a1.273,1.273,0,0,1-2.253.793q-3.709-3.722-7.43-7.434c-1.333-1.333-2.657-2.677-4.013-3.989a1.063,1.063,0,0,0-.792-.255,25.846,25.846,0,0,1-8.782-.019.964.964,0,0,0-.971.323Q21,56.341,15.449,61.874c-.132.132-.262.266-.4.394a1.182,1.182,0,0,1-1.319.274,1.2,1.2,0,0,1-.809-1.078q-.426-4.548-.859-9.1c-.049-.515-.1-1.029-.157-1.628-.791-.081-1.584-.17-2.379-.245q-4.146-.386-8.293-.766a1.252,1.252,0,0,1-1.163-.881,1.269,1.269,0,0,1,.416-1.4q4.4-4.393,8.8-8.79a3.874,3.874,0,0,1,.571-.408c-.379-.745-.72-1.319-.965-1.93-.186-.461-.479-.514-.911-.512a3.818,3.818,0,0,1-3.926-3.04,5.2,5.2,0,0,1-.088-1.111q-.008-6.219,0-12.437A3.862,3.862,0,0,1,8.1,15.056a.747.747,0,0,0,.788-.5A25.085,25.085,0,0,1,25.6.808a25.385,25.385,0,0,1,29.08,13.541,1.03,1.03,0,0,0,1.094.714,3.834,3.834,0,0,1,3.932,3.93c.005.373.013,12.032,0,12.4A1.241,1.241,0,0,1,58.5,32.647a1.263,1.263,0,0,1-1.263-1.207c-.03-.371,0-12.03-.014-12.4a1.392,1.392,0,0,0-1.521-1.5c-.125,0-.249,0-.373,0H8.377c-1.512,0-1.924.409-1.924,1.908q0,6.064,0,12.127c0,1.309.45,1.761,1.75,1.761q23.632,0,47.262,0c1.3,0,1.747-.454,1.764-1.754a3.055,3.055,0,0,1,.116-.976,1.119,1.119,0,0,1,1.219-.765,1.09,1.09,0,0,1,1.1.927c.344,2.4-.633,4.411-3.08,4.984a2.406,2.406,0,0,1-.863.06.848.848,0,0,0-1.009.655c-.222.554-.534,1.073-.833,1.659.14.148.289.311.446.468q4.352,4.354,8.7,8.711a8.82,8.82,0,0,1,.649.822ZM52.206,35.861H11.481a22.832,22.832,0,0,0,40.726,0m0-20.843a22.821,22.821,0,0,0-40.707,0ZM48.516,58.475c.027-.177.067-.359.083-.544q.386-4.113.768-8.226c.082-.9.4-1.272,1.3-1.364,2.059-.212,4.122-.395,6.183-.592.909-.087,1.818-.178,2.7-.266l-7.123-7.131a25.7,25.7,0,0,1-12.753,9.279c2.946,2.947,5.882,5.885,8.84,8.843M4.178,47.483c.039.005.134.021.231.031,2.885.277,5.773.545,8.657.833A1.22,1.22,0,0,1,14.3,49.574c.175,1.835.339,3.671.512,5.506.108,1.144.225,2.288.325,3.314L23.929,49.6a25.534,25.534,0,0,1-12.656-9.2l-7.1,7.085" transform="translate(0 0)" fill="#3d3d3d"/>
      <path id="Path_30135" data-name="Path 30135" d="M38.8,18.554a5.859,5.859,0,1,1-5.884,5.815A5.868,5.868,0,0,1,38.8,18.554m-.034,2.49A3.369,3.369,0,0,0,35.4,24.4a3.376,3.376,0,1,0,3.362-3.361" transform="translate(1.836 1.035)" fill="#fff"/>
      <path id="Path_30136" data-name="Path 30136" d="M27.789,18.484a6.115,6.115,0,0,1,3.3,1.217,1.236,1.236,0,1,1-1.415,2.025,2.992,2.992,0,0,0-2.267-.63,1.488,1.488,0,0,0-.746.381c-.316.324-.187.735.266.927.837.355,1.691.671,2.526,1.029A3.625,3.625,0,0,1,31.9,26.175a3.531,3.531,0,0,1-2.94,3.972,5.35,5.35,0,0,1-5.011-1.516,1.221,1.221,0,0,1-.125-1.82,1.239,1.239,0,0,1,1.823.025,3.038,3.038,0,0,0,2.72.883,1.148,1.148,0,0,0,1.063-.9c.1-.6-.387-.831-.819-1.022-.851-.377-1.715-.722-2.581-1.059A2.91,2.91,0,0,1,24.012,21.9a3.156,3.156,0,0,1,2.1-3.013,13.188,13.188,0,0,1,1.677-.4" transform="translate(1.31 1.031)" fill="#fff"/>
      <path id="Path_30137" data-name="Path 30137" d="M21.132,24.452c0,1.431,0,2.86,0,4.291,0,.96-.482,1.536-1.249,1.525-.744-.011-1.233-.583-1.235-1.492q-.011-4.384,0-8.767c0-.912.5-1.458,1.263-1.45s1.215.549,1.219,1.478c.006,1.472,0,2.944,0,4.415" transform="translate(1.04 1.035)" fill="#fff"/>
    </g>
  </g>
</svg>
